<?xml version="1.0" encoding="utf-8"?>
<!-- Generator: Adobe Illustrator 24.3.0, SVG Export Plug-In . SVG Version: 6.00 Build 0)  -->
<svg version="1.1" id="Layer_1" xmlns="http://www.w3.org/2000/svg" xmlns:xlink="http://www.w3.org/1999/xlink" x="0px" y="0px"
	 viewBox="0 0 46 38" style="enable-background:new 0 0 46 38;" xml:space="preserve">
<style type="text/css">
	.st0{fill:#FFFFFF;}
</style>
<path class="st0" d="M14.88,38h21.37v-2.88l-5.1-2.5v-3.55C32.1,23.12,44,21,44,21c1-2,0.79-3.5,0.79-3.5H17.5v0.72H1.09
	c0,0,3.5,5.39,8.71,6.35s7.44,1.09,7.44,1.09s2.8,1,3.06,3.33v3.59l-5.47,2.23L14.88,38z"/>
<g>
	<path class="st0" d="M35.32,2.2L9.46,12.59c-0.13,0.05-0.29-0.01-0.34-0.15l-0.36-0.89C8.7,11.41,8.77,11.26,8.9,11.2L34.76,0.82
		c0.13-0.05,0.29,0.01,0.34,0.15l0.36,0.89C35.52,2,35.45,2.15,35.32,2.2z"/>
	<path class="st0" d="M12.56,6.8l3.34,8.33c0.12,0.29-0.03,0.62-0.32,0.74l-3.33,1.34c-0.29,0.12-0.62-0.03-0.74-0.32L8.17,8.56
		C8.05,8.27,9.96,2.62,10.25,2.5L12.56,6.8z"/>
</g>
</svg>
